<svg width="17" height="17" viewBox="0 0 17 17" fill="none" xmlns="http://www.w3.org/2000/svg">
<path d="M3.37583 4.31006H4.8729V5.27783C4.8729 5.44786 4.93019 5.65517 5.0936 5.81299C5.24776 5.96186 5.43648 6.01899 5.62192 6.01904H6.12192C6.28437 6.01895 6.48923 5.96849 6.65024 5.81299C6.80612 5.66241 6.87094 5.47098 6.87094 5.27783V4.31006H10.8641V5.27783C10.8641 5.44781 10.9215 5.65519 11.0848 5.81299C11.2391 5.96195 11.4286 6.01904 11.6141 6.01904H12.1131C12.2756 6.01901 12.4804 5.96852 12.6415 5.81299C12.7974 5.6624 12.8622 5.47101 12.8622 5.27783V4.31006H14.3602C14.4896 4.31014 14.5968 4.35006 14.7166 4.45654C14.822 4.56813 14.8582 4.663 14.8582 4.78467V6.23584H2.8768V4.78467C2.87691 4.66669 2.91734 4.55818 3.02915 4.44385C3.11733 4.35374 3.22212 4.31006 3.37583 4.31006ZM12.7459 2.6792C12.8258 2.79222 12.8612 2.91788 12.8612 3.07568L12.8514 2.95361C12.8356 2.86199 12.8017 2.76681 12.745 2.67822L12.7459 2.6792ZM6.75473 2.6792C6.83455 2.79218 6.86997 2.91794 6.86997 3.07568L6.85923 2.95361C6.8434 2.86207 6.81039 2.76673 6.75376 2.67822L6.75473 2.6792ZM10.8768 2.94775C10.8826 2.91294 10.8922 2.87989 10.9032 2.84717C10.8922 2.88096 10.8828 2.91441 10.8768 2.94775ZM4.88462 2.94775C4.89065 2.91152 4.90128 2.87725 4.91294 2.84326C4.90135 2.87839 4.89087 2.91308 4.88462 2.94775ZM4.92466 2.80615C4.92627 2.80224 4.92784 2.79832 4.92954 2.79443C4.92794 2.79836 4.92618 2.80222 4.92466 2.80615ZM10.9159 2.80615C10.9175 2.80224 10.9191 2.79832 10.9207 2.79443C10.9191 2.79836 10.9174 2.80222 10.9159 2.80615ZM5.3768 2.38525C5.40894 2.37468 5.44185 2.36573 5.47641 2.35986C5.44355 2.36587 5.41036 2.3745 5.3768 2.38525ZM11.368 2.38525C11.4001 2.37466 11.4331 2.36575 11.4676 2.35986C11.4348 2.36589 11.4016 2.37449 11.368 2.38525Z" fill="black" stroke="white"/>
</svg>
