<svg width="25" height="24" viewBox="0 0 25 24" fill="none" xmlns="http://www.w3.org/2000/svg">
<path d="M15.4145 21.0008V13.0029C15.4145 12.7378 15.3091 12.4835 15.1216 12.296C14.9342 12.1085 14.6799 12.0032 14.4147 12.0032H10.4158C10.1506 12.0032 9.89635 12.1085 9.70886 12.296C9.52138 12.4835 9.41605 12.7378 9.41605 13.0029V21.0008" stroke="#4F46E5" stroke-width="2" stroke-linecap="round" stroke-linejoin="round"/>
<path d="M3.41763 10.0037C3.41756 9.71288 3.48095 9.42552 3.60337 9.16168C3.72579 8.89784 3.9043 8.66389 4.12645 8.47614L11.1246 2.47873C11.4855 2.17372 11.9427 2.00638 12.4152 2.00638C12.8878 2.00638 13.345 2.17372 13.7059 2.47873L20.7041 8.47614C20.9262 8.66389 21.1047 8.89784 21.2271 9.16168C21.3495 9.42552 21.4129 9.71288 21.4129 10.0037V19.0014C21.4129 19.5316 21.2022 20.0402 20.8272 20.4152C20.4523 20.7902 19.9437 21.0008 19.4134 21.0008H5.4171C4.88681 21.0008 4.37824 20.7902 4.00326 20.4152C3.62829 20.0402 3.41763 19.5316 3.41763 19.0014V10.0037Z" stroke="#4F46E5" stroke-width="2" stroke-linecap="round" stroke-linejoin="round"/>
</svg>
