<svg width="21" height="21" viewBox="0 0 21 21" fill="none" xmlns="http://www.w3.org/2000/svg">
<g clip-path="url(#clip0_1_18)">
<path d="M10.84 13.8241C12.68 13.8241 14.1716 12.3326 14.1716 10.4926C14.1716 8.6526 12.68 7.16101 10.84 7.16101C9.00007 7.16101 7.50848 8.6526 7.50848 10.4926C7.50848 12.3326 9.00007 13.8241 10.84 13.8241Z" stroke="white" stroke-width="2" stroke-linecap="round" stroke-linejoin="round"/>
<path d="M10.84 2.16364V3.8303" stroke="white" stroke-width="2" stroke-linecap="round" stroke-linejoin="round"/>
<path d="M10.84 17.1557V18.8224" stroke="white" stroke-width="2" stroke-linecap="round" stroke-linejoin="round"/>
<path d="M4.95149 4.60403L6.12649 5.77903" stroke="white" stroke-width="2" stroke-linecap="round" stroke-linejoin="round"/>
<path d="M15.5542 15.2067L16.7292 16.3817" stroke="white" stroke-width="2" stroke-linecap="round" stroke-linejoin="round"/>
<path d="M2.51112 10.4926H4.17779" stroke="white" stroke-width="2" stroke-linecap="round" stroke-linejoin="round"/>
<path d="M17.5032 10.4926H19.1698" stroke="white" stroke-width="2" stroke-linecap="round" stroke-linejoin="round"/>
<path d="M6.12649 15.2067L4.95149 16.3817" stroke="white" stroke-width="2" stroke-linecap="round" stroke-linejoin="round"/>
<path d="M16.7292 4.60403L15.5542 5.77903" stroke="white" stroke-width="2" stroke-linecap="round" stroke-linejoin="round"/>
</g>
<defs>
<clipPath id="clip0_1_18">
<rect width="19.9894" height="19.9894" fill="white" transform="translate(0.845337 0.497864)"/>
</clipPath>
</defs>
</svg>
