<svg width="121" height="121" viewBox="0 0 121 121" fill="none" xmlns="http://www.w3.org/2000/svg">
<path d="M60.0552 110.343C87.6661 110.343 110.049 87.9598 110.049 60.3489C110.049 32.7379 87.6661 10.3547 60.0552 10.3547C32.4442 10.3547 10.061 32.7379 10.061 60.3489C10.061 87.9598 32.4442 110.343 60.0552 110.343Z" stroke="black"/>
<path d="M85.0521 103.645C99.3992 95.3616 99.8383 69.2623 86.0328 45.3505C72.2273 21.4387 49.4051 8.76925 35.058 17.0525C20.7109 25.3358 20.2719 51.4351 34.0774 75.347C47.8829 99.2588 70.7051 111.928 85.0521 103.645Z" stroke="black"/>
<path d="M40.0576 60.3487L52.0562 72.3473L80.0529 44.3506" stroke="black" stroke-linecap="round" stroke-linejoin="round"/>
</svg>
