<svg width="321" height="257" viewBox="0 0 321 257" fill="none" xmlns="http://www.w3.org/2000/svg">
<g filter="url(#filter0_dd_107_20)">
<path d="M96.5708 128.449C96.5708 93.1044 125.223 64.4519 160.568 64.4519V64.4519C195.913 64.4519 224.565 93.1044 224.565 128.449V128.449C224.565 163.794 195.913 192.446 160.568 192.446V192.446C125.223 192.446 96.5708 163.794 96.5708 128.449V128.449Z" fill="url(#paint0_linear_107_20)"/>
</g>
<path d="M160.568 54.0447C201.66 54.0447 234.972 87.3566 234.972 128.449C234.972 169.541 201.66 202.853 160.568 202.853C119.475 202.853 86.1636 169.541 86.1636 128.449C86.1637 87.3567 119.476 54.0448 160.568 54.0447Z" stroke="#A5B4FC" stroke-width="3"/>
<path d="M200.571 72.4499C200.571 63.6157 207.733 56.4541 216.567 56.4541V56.4541C225.401 56.4541 232.563 63.6157 232.563 72.4499V72.4499C232.563 81.2841 225.401 88.4456 216.567 88.4456V88.4456C207.733 88.4456 200.571 81.2841 200.571 72.4499V72.4499Z" fill="#A5B4FC"/>
<defs>
<filter id="filter0_dd_107_20" x="84.5708" y="62.4519" width="151.994" height="151.994" filterUnits="userSpaceOnUse" color-interpolation-filters="sRGB">
<feFlood flood-opacity="0" result="BackgroundImageFix"/>
<feColorMatrix in="SourceAlpha" type="matrix" values="0 0 0 0 0 0 0 0 0 0 0 0 0 0 0 0 0 0 127 0" result="hardAlpha"/>
<feMorphology radius="3" operator="erode" in="SourceAlpha" result="effect1_dropShadow_107_20"/>
<feOffset dy="10"/>
<feGaussianBlur stdDeviation="7.5"/>
<feColorMatrix type="matrix" values="0 0 0 0 0 0 0 0 0 0 0 0 0 0 0 0 0 0 0.1 0"/>
<feBlend mode="normal" in2="BackgroundImageFix" result="effect1_dropShadow_107_20"/>
<feColorMatrix in="SourceAlpha" type="matrix" values="0 0 0 0 0 0 0 0 0 0 0 0 0 0 0 0 0 0 127 0" result="hardAlpha"/>
<feMorphology radius="4" operator="erode" in="SourceAlpha" result="effect2_dropShadow_107_20"/>
<feOffset dy="4"/>
<feGaussianBlur stdDeviation="3"/>
<feColorMatrix type="matrix" values="0 0 0 0 0 0 0 0 0 0 0 0 0 0 0 0 0 0 0.1 0"/>
<feBlend mode="normal" in2="effect1_dropShadow_107_20" result="effect2_dropShadow_107_20"/>
<feBlend mode="normal" in="SourceGraphic" in2="effect2_dropShadow_107_20" result="shape"/>
</filter>
<linearGradient id="paint0_linear_107_20" x1="83.3165" y1="141.703" x2="173.822" y2="232.209" gradientUnits="userSpaceOnUse">
<stop stop-color="#6366F1"/>
<stop offset="1" stop-color="#7E22CE"/>
</linearGradient>
</defs>
</svg>
