<svg width="21" height="21" viewBox="0 0 21 21" fill="none" xmlns="http://www.w3.org/2000/svg">
<path d="M10.3996 3.48828C9.40556 4.48232 8.84712 5.83052 8.84712 7.23629C8.84712 8.64207 9.40556 9.99027 10.3996 10.9843C11.3936 11.9783 12.7418 12.5368 14.1476 12.5368C15.5534 12.5368 16.9016 11.9783 17.8956 10.9843C17.8956 12.4669 17.456 13.9162 16.6323 15.1489C15.8086 16.3816 14.6379 17.3424 13.2682 17.9097C11.8985 18.4771 10.3913 18.6255 8.93719 18.3363C7.48311 18.0471 6.14744 17.3331 5.0991 16.2848C4.05077 15.2365 3.33684 13.9008 3.0476 12.4467C2.75837 10.9926 2.90681 9.48542 3.47417 8.1157C4.04153 6.74598 5.00231 5.57526 6.23503 4.75159C7.46774 3.92792 8.91702 3.48828 10.3996 3.48828Z" stroke="#111827" stroke-width="2" stroke-linecap="round" stroke-linejoin="round"/>
</svg>
