<svg width="40" height="40" viewBox="0 0 40 40" fill="none" xmlns="http://www.w3.org/2000/svg">
<path d="M16.6645 33.3288C16.6643 33.6385 16.7505 33.9421 16.9132 34.2056C17.076 34.469 17.309 34.6819 17.586 34.8203L20.9189 36.4868C21.173 36.6138 21.4554 36.6737 21.7392 36.6608C22.023 36.648 22.2988 36.5628 22.5404 36.4133C22.782 36.2639 22.9814 36.0552 23.1196 35.807C23.2579 35.5588 23.3304 35.2794 23.3302 34.9953V23.3302C23.3306 22.5043 23.6376 21.7079 24.1918 21.0955L36.2285 7.78223C36.4443 7.5432 36.5861 7.24678 36.637 6.92882C36.6878 6.61086 36.6455 6.28498 36.515 5.99059C36.3846 5.69621 36.1716 5.44591 35.9019 5.26998C35.6322 5.09406 35.3174 5.00003 34.9954 4.99927H4.99934C4.67706 4.99938 4.36173 5.09295 4.09154 5.26863C3.82136 5.4443 3.60791 5.69456 3.47705 5.98907C3.34619 6.28359 3.30354 6.60973 3.35427 6.928C3.40499 7.24626 3.54691 7.54299 3.76284 7.78223L15.8029 21.0955C16.3571 21.7079 16.6641 22.5043 16.6645 23.3302V33.3288Z" stroke="#9CA3AF" stroke-width="2" stroke-linecap="round" stroke-linejoin="round"/>
</svg>
