<svg width="161" height="161" viewBox="0 0 161 161" fill="none" xmlns="http://www.w3.org/2000/svg">
<path d="M119.993 33.9996C119.993 31.7907 118.202 30 115.993 30H79.9965H43.9996C41.7907 30 40 31.7907 40 33.9996V135.991C40 138.2 41.7907 139.99 43.9996 139.99H115.993C118.202 139.99 119.993 138.2 119.993 135.991V33.9996Z" stroke="black"/>
<path d="M106.053 20.3711H54.0574C51.8484 20.3711 50.0577 22.1618 50.0577 24.3707V36.3697C50.0577 38.5786 51.8484 40.3693 54.0574 40.3693H106.053C108.262 40.3693 110.052 38.5786 110.052 36.3697V24.3707C110.052 22.1618 108.262 20.3711 106.053 20.3711Z" stroke="black"/>
<path d="M60.0569 60.3674H100.053" stroke="black" stroke-linecap="round"/>
<path d="M60.0569 80.3657H100.053" stroke="black" stroke-linecap="round"/>
<path d="M60.0569 100.364H80.0551" stroke="black" stroke-linecap="round"/>
<path d="M100.053 125.362C108.337 125.362 115.052 118.647 115.052 110.363C115.052 102.08 108.337 95.3645 100.053 95.3645C91.7698 95.3645 85.0547 102.08 85.0547 110.363C85.0547 118.647 91.7698 125.362 100.053 125.362Z" stroke="black"/>
<path d="M93.054 110.364L98.0535 115.364L107.053 105.364" stroke="black" stroke-linecap="round" stroke-linejoin="round"/>
</svg>
