<svg width="160" height="160" viewBox="0 0 160 160" fill="none" xmlns="http://www.w3.org/2000/svg">
<path d="M79.993 139.988C113.127 139.988 139.988 113.127 139.988 79.993C139.988 46.8588 113.127 19.9983 79.993 19.9983C46.8588 19.9983 19.9983 46.8588 19.9983 79.993C19.9983 113.127 46.8588 139.988 79.993 139.988Z" stroke="black"/>
<path d="M79.9929 119.99C102.082 119.99 119.989 102.082 119.989 79.9931C119.989 57.9036 102.082 39.9966 79.9929 39.9966C57.9035 39.9966 39.9965 57.9036 39.9965 79.9931C39.9965 102.082 57.9035 119.99 79.9929 119.99Z" stroke="black"/>
<path d="M79.993 99.9911C91.0377 99.9911 99.9912 91.0376 99.9912 79.9929C99.9912 68.9481 91.0377 59.9946 79.993 59.9946C68.9483 59.9946 59.9948 68.9481 59.9948 79.9929C59.9948 91.0376 68.9483 99.9911 79.993 99.9911Z" stroke="black"/>
<path d="M79.9927 72.4937C84.1343 72.4937 87.4925 75.8511 87.4927 79.9927C87.4927 84.1344 84.1344 87.4927 79.9927 87.4927C75.8511 87.4925 72.4937 84.1343 72.4937 79.9927C72.4938 75.8511 75.8511 72.4938 79.9927 72.4937Z" fill="black" stroke="black"/>
<path d="M19.9983 79.9929H34.997" stroke="black" stroke-linecap="round"/>
<path d="M124.989 79.9929H139.988" stroke="black" stroke-linecap="round"/>
<path d="M79.9929 19.9983V34.997" stroke="black" stroke-linecap="round"/>
<path d="M79.9929 124.989V139.988" stroke="black" stroke-linecap="round"/>
</svg>
