<svg width="160" height="160" viewBox="0 0 160 160" fill="none" xmlns="http://www.w3.org/2000/svg">
<path d="M79.9929 119.99C102.082 119.99 119.989 102.082 119.989 79.9931C119.989 57.9036 102.082 39.9966 79.9929 39.9966C57.9035 39.9966 39.9965 57.9036 39.9965 79.9931C39.9965 102.082 57.9035 119.99 79.9929 119.99Z" stroke="black"/>
<path d="M79.993 104.991C113.127 104.991 139.988 93.7988 139.988 79.9929C139.988 66.187 113.127 54.9951 79.993 54.9951C46.8588 54.9951 19.9983 66.187 19.9983 79.9929C19.9983 93.7988 46.8588 104.991 79.993 104.991Z" stroke="black"/>
<path d="M64.9943 79.9928L74.9934 89.9919L94.9916 69.9937" stroke="black" stroke-linecap="round" stroke-linejoin="round"/>
<path d="M139.987 72.4937C144.129 72.4937 147.487 75.8511 147.487 79.9927C147.487 84.1344 144.129 87.4927 139.987 87.4927C135.846 87.4925 132.488 84.1343 132.488 79.9927C132.489 75.8511 135.846 72.4938 139.987 72.4937Z" fill="black" stroke="black"/>
</svg>
