<svg width="160" height="160" viewBox="0 0 160 160" fill="none" xmlns="http://www.w3.org/2000/svg">
<path d="M54.9952 39.9966H104.991V59.9948C104.991 82.0843 87.0837 99.9913 64.9943 99.9913C42.9048 99.9913 24.9978 82.0843 24.9978 59.9948V39.9966H54.9952Z" stroke="black"/>
<path d="M104.991 39.9966H134.988V59.9948C134.988 71.0395 126.035 79.9931 114.99 79.9931H104.991V39.9966Z" stroke="black"/>
<path d="M54.9952 39.9966H24.9978V59.9948C24.9978 71.0395 33.9513 79.9931 44.996 79.9931H54.9952V39.9966Z" stroke="black"/>
<path d="M94.9916 99.9912H64.9943V114.99H94.9916V99.9912Z" stroke="black"/>
<path d="M104.991 114.99H54.9951V124.99H104.991V114.99Z" stroke="black"/>
<path d="M87.3422 46.4097L87.4779 46.6929H103.761L90.9701 55.7847L90.6263 56.0288L90.8099 56.4087L97.9525 71.2427L80.225 61.9448L79.9926 61.8237L79.7611 61.9448L62.0316 71.2427L69.1761 56.4087L69.3588 56.0288L69.015 55.7847L56.225 46.6929H72.5082L72.6439 46.4097L79.9926 31.1499L87.3422 46.4097Z" fill="black" stroke="black"/>
</svg>
