<svg width="25" height="25" viewBox="0 0 25 25" fill="none" xmlns="http://www.w3.org/2000/svg">
<path d="M17.1957 4.88672H15.1962C14.6441 4.88672 14.1965 5.33432 14.1965 5.88645V19.8827C14.1965 20.4349 14.6441 20.8825 15.1962 20.8825H17.1957C17.7478 20.8825 18.1954 20.4349 18.1954 19.8827V5.88645C18.1954 5.33432 17.7478 4.88672 17.1957 4.88672Z" stroke="white" stroke-width="2" stroke-linecap="round" stroke-linejoin="round"/>
<path d="M9.19781 4.88672H7.19834C6.64621 4.88672 6.19861 5.33432 6.19861 5.88645V19.8827C6.19861 20.4349 6.64621 20.8825 7.19834 20.8825H9.19781C9.74995 20.8825 10.1975 20.4349 10.1975 19.8827V5.88645C10.1975 5.33432 9.74995 4.88672 9.19781 4.88672Z" stroke="white" stroke-width="2" stroke-linecap="round" stroke-linejoin="round"/>
</svg>
