<svg width="27" height="26" viewBox="0 0 27 26" fill="none" xmlns="http://www.w3.org/2000/svg">
<g clip-path="url(#clip0_4_123)">
<path d="M20.0292 9.09905C20.4255 8.70289 20.6481 8.16556 20.6482 7.60524C20.6483 7.04493 20.4258 6.50753 20.0296 6.11128C19.6335 5.71503 19.0961 5.49238 18.5358 5.49231C17.9755 5.49224 17.4381 5.71476 17.0419 6.11091L7.03942 16.1156C6.86541 16.2891 6.73672 16.5027 6.66469 16.7376L5.67464 19.9993C5.65527 20.0642 5.6538 20.133 5.6704 20.1986C5.687 20.2642 5.72104 20.324 5.76892 20.3718C5.81679 20.4196 5.87671 20.4536 5.94232 20.4701C6.00792 20.4866 6.07677 20.485 6.14156 20.4655L9.404 19.4762C9.63871 19.4048 9.85231 19.2769 10.0261 19.1037L20.0292 9.09905Z" stroke="white" stroke-width="2" stroke-linecap="round" stroke-linejoin="round"/>
<path d="M15.402 7.74097L18.3999 10.7388" stroke="white" stroke-width="2" stroke-linecap="round" stroke-linejoin="round"/>
</g>
<defs>
<clipPath id="clip0_4_123">
<rect width="17.9873" height="17.9873" fill="white" transform="translate(4.15996 3.99365)"/>
</clipPath>
</defs>
</svg>
