<svg width="25" height="24" viewBox="0 0 25 24" fill="none" xmlns="http://www.w3.org/2000/svg">
<path d="M20.803 20.0011C21.3333 20.0011 21.8418 19.7904 22.2168 19.4155C22.5918 19.0405 22.8024 18.5319 22.8024 18.0016V8.00426C22.8024 7.47397 22.5918 6.9654 22.2168 6.59042C21.8418 6.21545 21.3333 6.00479 20.803 6.00479H12.9051C12.5707 6.00807 12.2408 5.92742 11.9456 5.77023C11.6504 5.61304 11.3994 5.38433 11.2155 5.10503L10.4057 3.90535C10.2237 3.62889 9.9758 3.40196 9.68441 3.24492C9.39301 3.08788 9.06718 3.00564 8.73616 3.00558H4.8072C4.27691 3.00558 3.76833 3.21624 3.39336 3.59122C3.01839 3.96619 2.80773 4.47476 2.80773 5.00506V18.0016C2.80773 18.5319 3.01839 19.0405 3.39336 19.4155C3.76833 19.7904 4.27691 20.0011 4.8072 20.0011H20.803Z" stroke="#9CA3AF" stroke-width="2" stroke-linecap="round" stroke-linejoin="round"/>
</svg>
