<svg width="15" height="15" viewBox="0 0 15 15" fill="none" xmlns="http://www.w3.org/2000/svg">
<g clip-path="url(#clip0_4_168)">
<path d="M8.32701 2.47245C8.10827 2.25364 7.81157 2.13068 7.50217 2.13062H3.31851C3.00909 2.13062 2.71234 2.25353 2.49355 2.47232C2.27476 2.69112 2.15184 2.98786 2.15184 3.29728V7.48095C2.15191 7.79034 2.27487 8.08704 2.49367 8.30578L7.57101 13.3831C7.83614 13.6466 8.19473 13.7944 8.56851 13.7944C8.94228 13.7944 9.30087 13.6466 9.56601 13.3831L13.4043 9.54478C13.6678 9.27965 13.8157 8.92105 13.8157 8.54728C13.8157 8.17351 13.6678 7.81491 13.4043 7.54978L8.32701 2.47245Z" stroke="#6B7280" stroke-width="2" stroke-linecap="round" stroke-linejoin="round"/>
<path d="M5.35986 5.63033C5.52094 5.63033 5.65152 5.49975 5.65152 5.33866C5.65152 5.17758 5.52094 5.047 5.35986 5.047C5.19878 5.047 5.06819 5.17758 5.06819 5.33866C5.06819 5.49975 5.19878 5.63033 5.35986 5.63033Z" fill="black" stroke="#6B7280" stroke-width="2" stroke-linecap="round" stroke-linejoin="round"/>
</g>
<defs>
<clipPath id="clip0_4_168">
<rect width="13.9989" height="13.9989" fill="white" transform="translate(0.985168 0.963989)"/>
</clipPath>
</defs>
</svg>
