<svg width="14" height="13" viewBox="0 0 14 13" fill="none" xmlns="http://www.w3.org/2000/svg">
<path d="M6.82885 12.2427L1.24348 6.65734C0.797959 6.21182 0.500942 5.69385 0.352433 5.10344C0.207547 4.51302 0.209358 3.92623 0.357867 3.34307C0.506375 2.75628 0.801581 2.24555 1.24348 1.81089C1.69625 1.36537 2.21241 1.07016 2.79196 0.925275C3.37513 0.776766 3.95648 0.776766 4.53603 0.925275C5.11919 1.07378 5.63716 1.36899 6.08993 1.81089L6.82885 2.52808L7.56777 1.81089C8.02417 1.36899 8.54214 1.07378 9.12168 0.925275C9.70123 0.776766 10.2808 0.776766 10.8603 0.925275C11.4435 1.07016 11.9615 1.36537 12.4142 1.81089C12.8561 2.24555 13.1513 2.75628 13.2998 3.34307C13.4484 3.92623 13.4484 4.51302 13.2998 5.10344C13.155 5.69385 12.8597 6.21182 12.4142 6.65734L6.82885 12.2427Z" fill="white"/>
</svg>
