<svg width="21" height="21" viewBox="0 0 21 21" fill="none" xmlns="http://www.w3.org/2000/svg">
<path d="M10.9904 2.16364H10.624C10.1822 2.16364 9.75848 2.33914 9.44609 2.65153C9.13369 2.96393 8.95819 3.38763 8.95819 3.82942V3.97934C8.95789 4.27146 8.88078 4.55836 8.73459 4.81126C8.5884 5.06417 8.37828 5.27418 8.1253 5.42024L7.76715 5.62847C7.51392 5.77467 7.22667 5.85164 6.93426 5.85164C6.64186 5.85164 6.3546 5.77467 6.10137 5.62847L5.97644 5.56183C5.59419 5.34134 5.14008 5.28152 4.71377 5.39551C4.28747 5.50951 3.92382 5.78799 3.70264 6.16985L3.5194 6.48634C3.29891 6.86859 3.23909 7.3227 3.35308 7.74901C3.46708 8.17531 3.74556 8.53896 4.12742 8.76014L4.25235 8.84343C4.50411 8.98878 4.71345 9.19748 4.85957 9.4488C5.00569 9.70012 5.08349 9.9853 5.08524 10.276V10.7008C5.08641 10.9943 5.00999 11.2829 4.86373 11.5374C4.71747 11.7919 4.50656 12.0032 4.25235 12.15L4.12742 12.225C3.74556 12.4461 3.46708 12.8098 3.35308 13.2361C3.23909 13.6624 3.29891 14.1165 3.5194 14.4988L3.70264 14.8153C3.92382 15.1971 4.28747 15.4756 4.71377 15.5896C5.14008 15.7036 5.59419 15.6438 5.97644 15.4233L6.10137 15.3566C6.3546 15.2104 6.64186 15.1335 6.93426 15.1335C7.22667 15.1335 7.51392 15.2104 7.76715 15.3566L8.1253 15.5649C8.37828 15.7109 8.5884 15.9209 8.73459 16.1738C8.88078 16.4268 8.95789 16.7137 8.95819 17.0058V17.1557C8.95819 17.5975 9.13369 18.0212 9.44609 18.3336C9.75848 18.646 10.1822 18.8215 10.624 18.8215H10.9904C11.4322 18.8215 11.8559 18.646 12.1683 18.3336C12.4807 18.0212 12.6562 17.5975 12.6562 17.1557V17.0058C12.6565 16.7137 12.7336 16.4268 12.8798 16.1738C13.026 15.9209 13.2361 15.7109 13.4891 15.5649L13.8473 15.3566C14.1005 15.2104 14.3878 15.1335 14.6802 15.1335C14.9726 15.1335 15.2598 15.2104 15.513 15.3566L15.638 15.4233C16.0202 15.6438 16.4743 15.7036 16.9006 15.5896C17.3269 15.4756 17.6906 15.1971 17.9118 14.8153L18.095 14.4904C18.3155 14.1082 18.3753 13.6541 18.2613 13.2278C18.1473 12.8015 17.8689 12.4378 17.487 12.2166L17.3621 12.15C17.1079 12.0032 16.897 11.7919 16.7507 11.5374C16.6044 11.2829 16.528 10.9943 16.5292 10.7008V10.2843C16.528 9.9908 16.6044 9.70218 16.7507 9.44769C16.897 9.19319 17.1079 8.98186 17.3621 8.8351L17.487 8.76014C17.8689 8.53896 18.1473 8.17531 18.2613 7.74901C18.3753 7.3227 18.3155 6.86859 18.095 6.48634L17.9118 6.16985C17.6906 5.78799 17.3269 5.50951 16.9006 5.39551C16.4743 5.28152 16.0202 5.34134 15.638 5.56183L15.513 5.62847C15.2598 5.77467 14.9726 5.85164 14.6802 5.85164C14.3878 5.85164 14.1005 5.77467 13.8473 5.62847L13.4891 5.42024C13.2361 5.27418 13.026 5.06417 12.8798 4.81126C12.7336 4.55836 12.6565 4.27146 12.6562 3.97934V3.82942C12.6562 3.38763 12.4807 2.96393 12.1683 2.65153C11.8559 2.33914 11.4322 2.16364 10.9904 2.16364Z" stroke="white" stroke-width="2" stroke-linecap="round" stroke-linejoin="round"/>
<path d="M10.8072 12.9912C12.1872 12.9912 13.3059 11.8726 13.3059 10.4926C13.3059 9.11259 12.1872 7.9939 10.8072 7.9939C9.42723 7.9939 8.30853 9.11259 8.30853 10.4926C8.30853 11.8726 9.42723 12.9912 10.8072 12.9912Z" stroke="white" stroke-width="2" stroke-linecap="round" stroke-linejoin="round"/>
</svg>
