<svg width="17" height="17" viewBox="0 0 17 17" fill="none" xmlns="http://www.w3.org/2000/svg">
<path d="M8.82096 8.71796C9.1888 8.71796 9.487 8.41976 9.487 8.05191C9.487 7.68406 9.1888 7.38586 8.82096 7.38586C8.45311 7.38586 8.15491 7.68406 8.15491 8.05191C8.15491 8.41976 8.45311 8.71796 8.82096 8.71796Z" stroke="white" stroke-width="2" stroke-linecap="round" stroke-linejoin="round"/>
<path d="M13.4833 8.71796C13.8512 8.71796 14.1494 8.41976 14.1494 8.05191C14.1494 7.68406 13.8512 7.38586 13.4833 7.38586C13.1155 7.38586 12.8173 7.68406 12.8173 8.05191C12.8173 8.41976 13.1155 8.71796 13.4833 8.71796Z" stroke="white" stroke-width="2" stroke-linecap="round" stroke-linejoin="round"/>
<path d="M4.1586 8.71796C4.52645 8.71796 4.82465 8.41976 4.82465 8.05191C4.82465 7.68406 4.52645 7.38586 4.1586 7.38586C3.79075 7.38586 3.49255 7.68406 3.49255 8.05191C3.49255 8.41976 3.79075 8.71796 4.1586 8.71796Z" stroke="white" stroke-width="2" stroke-linecap="round" stroke-linejoin="round"/>
</svg>
