<svg width="17" height="17" viewBox="0 0 17 17" fill="none" xmlns="http://www.w3.org/2000/svg">
<mask id="path-1-inside-1_1_1019" fill="white">
<path fill-rule="evenodd" clip-rule="evenodd" d="M11.2702 6.66622C11.4655 6.86148 11.4655 7.17807 11.2702 7.37331L8.60353 10.04C8.40826 10.2352 8.09173 10.2352 7.89646 10.04L5.22977 7.37331C5.03451 7.17807 5.03451 6.86148 5.22977 6.66622C5.42503 6.47096 5.74162 6.47096 5.93688 6.66622L8.24999 8.97931L10.5631 6.66622C10.7584 6.47096 11.0749 6.47096 11.2702 6.66622Z"/>
</mask>
<path fill-rule="evenodd" clip-rule="evenodd" d="M11.2702 6.66622C11.4655 6.86148 11.4655 7.17807 11.2702 7.37331L8.60353 10.04C8.40826 10.2352 8.09173 10.2352 7.89646 10.04L5.22977 7.37331C5.03451 7.17807 5.03451 6.86148 5.22977 6.66622C5.42503 6.47096 5.74162 6.47096 5.93688 6.66622L8.24999 8.97931L10.5631 6.66622C10.7584 6.47096 11.0749 6.47096 11.2702 6.66622Z" fill="black"/>
<path d="M11.2702 7.37331L10.5631 6.66615L10.5631 6.6662L11.2702 7.37331ZM8.60353 10.04L7.89642 9.33287V9.33287L8.60353 10.04ZM7.89646 10.04L8.60357 9.33287L8.60356 9.33286L7.89646 10.04ZM5.22977 7.37331L5.93688 6.6662L5.93684 6.66616L5.22977 7.37331ZM5.93688 6.66622L5.22977 7.37333L5.22978 7.37333L5.93688 6.66622ZM8.24999 8.97931L7.54289 9.68642L8.24999 10.3935L8.95709 9.68642L8.24999 8.97931ZM10.5631 6.66622L9.85603 5.9591L9.85603 5.95911L10.5631 6.66622ZM11.2702 6.66622L10.5631 7.37334C10.3678 7.17809 10.3678 6.86147 10.5631 6.66615L11.2702 7.37331L11.9773 8.08046C12.5631 7.49467 12.5631 6.54487 11.9773 5.9591L11.2702 6.66622ZM11.2702 7.37331L10.5631 6.6662L7.89642 9.33287L8.60353 10.04L9.31063 10.7471L11.9773 8.08041L11.2702 7.37331ZM8.60353 10.04L7.89642 9.33287C8.09168 9.13761 8.40831 9.13761 8.60357 9.33287L7.89646 10.04L7.18935 10.7471C7.77514 11.3329 8.72484 11.3329 9.31063 10.7471L8.60353 10.04ZM7.89646 10.04L8.60356 9.33286L5.93688 6.6662L5.22977 7.37331L4.52267 8.08042L7.18936 10.7471L7.89646 10.04ZM5.22977 7.37331L5.93684 6.66616C6.13218 6.86148 6.13212 7.17808 5.93688 7.37333L5.22977 6.66622L4.52267 5.95911C3.9369 6.54488 3.93685 7.49466 4.5227 8.08045L5.22977 7.37331ZM5.22977 6.66622L5.93688 7.37333C5.74162 7.56859 5.42504 7.56859 5.22977 7.37333L5.93688 6.66622L6.64399 5.95911C6.0582 5.37333 5.10845 5.37333 4.52267 5.95911L5.22977 6.66622ZM5.93688 6.66622L5.22978 7.37333L7.54289 9.68642L8.24999 8.97931L8.9571 8.2722L6.64398 5.95911L5.93688 6.66622ZM8.24999 8.97931L8.95709 9.68642L11.2702 7.37333L10.5631 6.66622L9.85603 5.95911L7.54289 8.27219L8.24999 8.97931ZM10.5631 6.66622L11.2702 7.37334C11.075 7.56859 10.7584 7.56859 10.5631 7.37334L11.2702 6.66622L11.9773 5.9591C11.3915 5.37333 10.4418 5.37333 9.85603 5.9591L10.5631 6.66622Z" fill="white" mask="url(#path-1-inside-1_1_1019)"/>
</svg>
